<?xml version="1.0" encoding="UTF-8"?>
<svg width="64" height="64" viewBox="0 0 64 64" xmlns="http://www.w3.org/2000/svg">
  <!-- Background circle -->
  <circle cx="32" cy="32" r="30" fill="#2196F3" stroke="#1976D2" stroke-width="2"/>
  
  <!-- Gear icon -->
  <g transform="translate(32, 32)">
    <!-- Main gear -->
    <path d="M-12,-12 L-8,-12 L-6,-8 L-2,-8 L0,-12 L4,-12 L6,-8 L10,-8 L12,-12 L16,-12 L16,-8 L12,-4 L12,0 L16,4 L16,8 L12,12 L10,8 L6,8 L4,12 L0,12 L-2,8 L-6,8 L-8,12 L-12,12 L-12,8 L-8,4 L-8,0 L-12,-4 Z" fill="white"/>
    
    <!-- Center circle -->
    <circle cx="0" cy="0" r="4" fill="white"/>
  </g>
  
  <!-- Equipment lines -->
  <g stroke="white" stroke-width="2" fill="none">
    <line x1="8" y1="48" x2="16" y2="48"/>
    <line x1="48" y1="48" x2="56" y2="48"/>
    <line x1="8" y1="16" x2="16" y2="16"/>
    <line x1="48" y1="16" x2="56" y2="16"/>
  </g>
</svg> 